<?xml version="1.0" encoding="UTF-8" standalone="no"?>
<svg xmlns:svg="http://www.w3.org/2000/svg"
xmlns="http://www.w3.org/2000/svg" version="1.1"
width="360" height="185">
<!-- Created with the Wikimedia parliament diagram creator (http://tools.wmflabs.org/parliamentdiagram/parliamentinputform.html) -->
<g>
<text x="175" y="175" style="font-size:36px;font-weight:bold;text-align:center;text-anchor:middle;font-family:sans-serif">1000</text>
  <g style="fill:#893737; stroke:none" id="Muerenporcáncerdemama">
    <circle cx="7.96" cy="177.65" r="2.35"/>
    <circle cx="13.84" cy="177.65" r="2.35"/>
  </g>
  <g style="fill:#FF6666; stroke:none" id="Muerenporotrascausas">
    <circle cx="19.72" cy="177.65" r="2.35"/>
    <circle cx="25.61" cy="177.65" r="2.35"/>
    <circle cx="31.49" cy="177.65" r="2.35"/>
    <circle cx="37.37" cy="177.65" r="2.35"/>
    <circle cx="43.26" cy="177.65" r="2.35"/>
    <circle cx="49.14" cy="177.65" r="2.35"/>
    <circle cx="55.02" cy="177.65" r="2.35"/>
    <circle cx="60.91" cy="177.65" r="2.35"/>
    <circle cx="66.79" cy="177.65" r="2.35"/>
    <circle cx="72.67" cy="177.65" r="2.35"/>
    <circle cx="78.56" cy="177.65" r="2.35"/>
    <circle cx="84.44" cy="177.65" r="2.35"/>
  </g>
  <g style="fill:#2AD3CE; stroke:none" id="Sobrevivenalcancerdemama">
    <circle cx="90.32" cy="177.65" r="2.35"/>
    <circle cx="96.21" cy="177.65" r="2.35"/>
    <circle cx="102.09" cy="177.65" r="2.35"/>
    <circle cx="8.17" cy="171.04" r="2.35"/>
    <circle cx="14.07" cy="170.93" r="2.35"/>
    <circle cx="19.96" cy="171.00" r="2.35"/>
    <circle cx="25.85" cy="170.98" r="2.35"/>
    <circle cx="31.75" cy="170.96" r="2.35"/>
    <circle cx="37.64" cy="170.93" r="2.35"/>
    <circle cx="43.54" cy="170.91" r="2.35"/>
    <circle cx="49.43" cy="170.99" r="2.35"/>
  </g>
  <g style="fill:#FE9CCC; stroke:none" id="evitamorirse">
    <circle cx="55.33" cy="170.97" r="2.35"/>
  </g>
  <g style="fill:#3555DC; stroke:none" id="sobrediagnositco">
    <circle cx="61.23" cy="170.94" r="2.35"/>
    <circle cx="67.13" cy="170.91" r="2.35"/>
    <circle cx="73.04" cy="170.87" r="2.35"/>
    <circle cx="78.93" cy="170.98" r="2.35"/>
    <circle cx="8.65" cy="164.44" r="2.35"/>
    <circle cx="84.84" cy="170.94" r="2.35"/>
    <circle cx="14.57" cy="164.23" r="2.35"/>
  </g>
  <g style="fill:#FCCE78; stroke:none" id="falsasalarmas">
    <circle cx="20.47" cy="164.37" r="2.35"/>
    <circle cx="90.76" cy="170.90" r="2.35"/>
    <circle cx="26.39" cy="164.33" r="2.35"/>
    <circle cx="32.30" cy="164.29" r="2.35"/>
    <circle cx="96.68" cy="170.86" r="2.35"/>
    <circle cx="38.23" cy="164.24" r="2.35"/>
    <circle cx="44.15" cy="164.19" r="2.35"/>
    <circle cx="102.60" cy="170.81" r="2.35"/>
    <circle cx="50.06" cy="164.36" r="2.35"/>
    <circle cx="55.99" cy="164.31" r="2.35"/>
    <circle cx="9.37" cy="157.86" r="2.35"/>
    <circle cx="61.93" cy="164.26" r="2.35"/>
    <circle cx="15.35" cy="157.56" r="2.35"/>
    <circle cx="21.26" cy="157.76" r="2.35"/>
    <circle cx="67.87" cy="164.20" r="2.35"/>
    <circle cx="27.21" cy="157.71" r="2.35"/>
    <circle cx="73.83" cy="164.13" r="2.35"/>
    <circle cx="33.16" cy="157.65" r="2.35"/>
    <circle cx="79.74" cy="164.35" r="2.35"/>
    <circle cx="39.13" cy="157.58" r="2.35"/>
    <circle cx="45.10" cy="157.51" r="2.35"/>
    <circle cx="85.71" cy="164.28" r="2.35"/>
    <circle cx="10.35" cy="151.32" r="2.35"/>
    <circle cx="51.02" cy="157.77" r="2.35"/>
    <circle cx="16.39" cy="150.92" r="2.35"/>
    <circle cx="91.69" cy="164.21" r="2.35"/>
    <circle cx="57.01" cy="157.70" r="2.35"/>
    <circle cx="22.31" cy="151.20" r="2.35"/>
    <circle cx="28.31" cy="151.13" r="2.35"/>
    <circle cx="63.00" cy="157.63" r="2.35"/>
    <circle cx="97.69" cy="164.13" r="2.35"/>
    <circle cx="34.32" cy="151.06" r="2.35"/>
    <circle cx="69.01" cy="157.55" r="2.35"/>
    <circle cx="40.34" cy="150.98" r="2.35"/>
    <circle cx="11.58" cy="144.82" r="2.35"/>
    <circle cx="103.71" cy="164.04" r="2.35"/>
    <circle cx="75.04" cy="157.46" r="2.35"/>
    <circle cx="46.37" cy="150.89" r="2.35"/>
    <circle cx="17.70" cy="144.33" r="2.35"/>
    <circle cx="80.99" cy="157.78" r="2.35"/>
    <circle cx="52.32" cy="151.23" r="2.35"/>
    <circle cx="23.65" cy="144.68" r="2.35"/>
    <circle cx="29.70" cy="144.60" r="2.35"/>
    <circle cx="58.37" cy="151.15" r="2.35"/>
    <circle cx="87.05" cy="157.70" r="2.35"/>
    <circle cx="35.77" cy="144.52" r="2.35"/>
    <circle cx="13.05" cy="138.37" r="2.35"/>
    <circle cx="64.45" cy="151.07" r="2.35"/>
    <circle cx="41.86" cy="144.43" r="2.35"/>
    <circle cx="93.13" cy="157.61" r="2.35"/>
    <circle cx="19.27" cy="137.80" r="2.35"/>
    <circle cx="70.55" cy="150.97" r="2.35"/>
    <circle cx="25.25" cy="138.23" r="2.35"/>
    <circle cx="47.97" cy="144.34" r="2.35"/>
    <circle cx="99.25" cy="157.51" r="2.35"/>
    <circle cx="53.95" cy="144.77" r="2.35"/>
    <circle cx="31.37" cy="138.14" r="2.35"/>
    <circle cx="76.67" cy="150.87" r="2.35"/>
    <circle cx="14.78" cy="131.99" r="2.35"/>
    <circle cx="37.52" cy="138.06" r="2.35"/>
    <circle cx="60.09" cy="144.69" r="2.35"/>
    <circle cx="82.67" cy="151.31" r="2.35"/>
    <circle cx="105.41" cy="157.39" r="2.35"/>
    <circle cx="21.11" cy="131.34" r="2.35"/>
    <circle cx="43.69" cy="137.97" r="2.35"/>
    <circle cx="66.26" cy="144.60" r="2.35"/>
    <circle cx="27.11" cy="131.84" r="2.35"/>
    <circle cx="88.84" cy="151.23" r="2.35"/>
    <circle cx="49.89" cy="137.87" r="2.35"/>
    <circle cx="33.32" cy="131.76" r="2.35"/>
    <circle cx="72.47" cy="144.50" r="2.35"/>
    <circle cx="16.74" cy="125.67" r="2.35"/>
    <circle cx="55.90" cy="138.40" r="2.35"/>
    <circle cx="95.07" cy="151.13" r="2.35"/>
    <circle cx="39.55" cy="131.68" r="2.35"/>
    <circle cx="23.20" cy="124.96" r="2.35"/>
    <circle cx="78.72" cy="144.40" r="2.35"/>
    <circle cx="62.15" cy="138.32" r="2.35"/>
    <circle cx="45.82" cy="131.60" r="2.35"/>
    <circle cx="29.24" cy="125.54" r="2.35"/>
    <circle cx="84.77" cy="144.97" r="2.35"/>
    <circle cx="101.34" cy="151.03" r="2.35"/>
    <circle cx="68.44" cy="138.24" r="2.35"/>
    <circle cx="18.95" cy="119.44" r="2.35"/>
    <circle cx="35.54" cy="125.47" r="2.35"/>
    <circle cx="52.12" cy="131.51" r="2.35"/>
    <circle cx="58.18" cy="132.14" r="2.35"/>
    <circle cx="91.09" cy="144.90" r="2.35"/>
    <circle cx="41.87" cy="125.40" r="2.35"/>
    <circle cx="25.56" cy="118.66" r="2.35"/>
    <circle cx="74.78" cy="138.16" r="2.35"/>
    <circle cx="107.69" cy="150.92" r="2.35"/>
    <circle cx="31.63" cy="119.33" r="2.35"/>
    <circle cx="48.24" cy="125.33" r="2.35"/>
    <circle cx="64.55" cy="132.08" r="2.35"/>
    <circle cx="21.40" cy="113.29" r="2.35"/>
    <circle cx="81.17" cy="138.07" r="2.35"/>
    <circle cx="97.48" cy="144.82" r="2.35"/>
    <circle cx="38.03" cy="119.28" r="2.35"/>
    <circle cx="54.67" cy="125.26" r="2.35"/>
    <circle cx="70.97" cy="132.02" r="2.35"/>
    <circle cx="87.28" cy="138.78" r="2.35"/>
    <circle cx="28.16" cy="112.47" r="2.35"/>
    <circle cx="44.47" cy="119.23" r="2.35"/>
    <circle cx="60.78" cy="126.00" r="2.35"/>
    <circle cx="34.27" cy="113.23" r="2.35"/>
    <circle cx="103.95" cy="144.75" r="2.35"/>
    <circle cx="24.08" cy="107.24" r="2.35"/>
    <circle cx="77.46" cy="131.96" r="2.35"/>
    <circle cx="50.96" cy="119.19" r="2.35"/>
    <circle cx="93.77" cy="138.74" r="2.35"/>
    <circle cx="67.28" cy="125.97" r="2.35"/>
    <circle cx="40.78" cy="113.21" r="2.35"/>
    <circle cx="31.02" cy="106.39" r="2.35"/>
    <circle cx="57.52" cy="119.15" r="2.35"/>
    <circle cx="84.02" cy="131.91" r="2.35"/>
    <circle cx="47.34" cy="113.19" r="2.35"/>
    <circle cx="110.52" cy="144.68" r="2.35"/>
    <circle cx="73.85" cy="125.95" r="2.35"/>
    <circle cx="37.17" cy="107.24" r="2.35"/>
    <circle cx="26.99" cy="101.30" r="2.35"/>
    <circle cx="63.68" cy="120.00" r="2.35"/>
    <circle cx="100.36" cy="138.71" r="2.35"/>
    <circle cx="90.19" cy="132.77" r="2.35"/>
    <circle cx="53.97" cy="113.18" r="2.35"/>
    <circle cx="43.80" cy="107.26" r="2.35"/>
    <circle cx="80.50" cy="125.94" r="2.35"/>
    <circle cx="34.11" cy="100.43" r="2.35"/>
    <circle cx="70.33" cy="120.02" r="2.35"/>
    <circle cx="60.67" cy="113.19" r="2.35"/>
    <circle cx="50.49" cy="107.28" r="2.35"/>
    <circle cx="40.31" cy="101.38" r="2.35"/>
    <circle cx="30.13" cy="95.48" r="2.35"/>
    <circle cx="107.06" cy="138.70" r="2.35"/>
    <circle cx="96.88" cy="132.79" r="2.35"/>
    <circle cx="66.88" cy="114.16" r="2.35"/>
    <circle cx="77.07" cy="120.05" r="2.35"/>
    <circle cx="87.25" cy="125.95" r="2.35"/>
    <circle cx="47.07" cy="101.44" r="2.35"/>
    <circle cx="57.26" cy="107.32" r="2.35"/>
    <circle cx="37.45" cy="94.59" r="2.35"/>
    <circle cx="93.50" cy="126.96" r="2.35"/>
    <circle cx="33.49" cy="89.78" r="2.35"/>
    <circle cx="103.69" cy="132.83" r="2.35"/>
    <circle cx="73.70" cy="114.24" r="2.35"/>
    <circle cx="43.69" cy="95.65" r="2.35"/>
    <circle cx="53.90" cy="101.52" r="2.35"/>
    <circle cx="83.90" cy="120.11" r="2.35"/>
    <circle cx="113.90" cy="138.70" r="2.35"/>
    <circle cx="64.11" cy="107.38" r="2.35"/>
    <circle cx="50.58" cy="95.77" r="2.35"/>
    <circle cx="70.38" cy="108.49" r="2.35"/>
    <circle cx="41.02" cy="88.90" r="2.35"/>
    <circle cx="60.81" cy="101.62" r="2.35"/>
    <circle cx="80.61" cy="114.35" r="2.35"/>
    <circle cx="100.41" cy="127.07" r="2.35"/>
    <circle cx="37.07" cy="84.22" r="2.35"/>
    <circle cx="90.85" cy="120.19" r="2.35"/>
    <circle cx="47.31" cy="90.07" r="2.35"/>
    <circle cx="110.65" cy="132.92" r="2.35"/>
    <circle cx="57.56" cy="95.92" r="2.35"/>
    <circle cx="77.37" cy="108.65" r="2.35"/>
    <circle cx="67.83" cy="101.76" r="2.35"/>
    <circle cx="97.17" cy="121.38" r="2.35"/>
    <circle cx="87.64" cy="114.49" r="2.35"/>
    <circle cx="54.34" cy="90.26" r="2.35"/>
    <circle cx="44.81" cy="83.36" r="2.35"/>
    <circle cx="64.64" cy="96.10" r="2.35"/>
    <circle cx="40.85" cy="78.79" r="2.35"/>
    <circle cx="74.16" cy="103.01" r="2.35"/>
    <circle cx="107.46" cy="127.22" r="2.35"/>
    <circle cx="51.15" cy="84.64" r="2.35"/>
    <circle cx="84.47" cy="108.85" r="2.35"/>
    <circle cx="117.78" cy="133.05" r="2.35"/>
    <circle cx="61.47" cy="90.49" r="2.35"/>
    <circle cx="94.81" cy="114.68" r="2.35"/>
    <circle cx="104.32" cy="121.61" r="2.35"/>
    <circle cx="71.82" cy="96.32" r="2.35"/>
    <circle cx="81.33" cy="103.26" r="2.35"/>
    <circle cx="48.83" cy="77.97" r="2.35"/>
    <circle cx="58.34" cy="84.91" r="2.35"/>
    <circle cx="44.85" cy="73.52" r="2.35"/>
    <circle cx="68.71" cy="90.76" r="2.35"/>
    <circle cx="91.71" cy="109.10" r="2.35"/>
    <circle cx="114.70" cy="127.45" r="2.35"/>
    <circle cx="55.22" cy="79.38" r="2.35"/>
    <circle cx="78.22" cy="97.72" r="2.35"/>
    <circle cx="101.21" cy="116.06" r="2.35"/>
    <circle cx="65.63" cy="85.24" r="2.35"/>
    <circle cx="88.63" cy="103.58" r="2.35"/>
    <circle cx="53.06" cy="72.75" r="2.35"/>
    <circle cx="111.64" cy="121.91" r="2.35"/>
    <circle cx="49.04" cy="68.40" r="2.35"/>
    <circle cx="62.56" cy="79.75" r="2.35"/>
    <circle cx="76.08" cy="91.09" r="2.35"/>
    <circle cx="85.58" cy="98.09" r="2.35"/>
    <circle cx="99.10" cy="109.43" r="2.35"/>
    <circle cx="59.50" cy="74.29" r="2.35"/>
    <circle cx="73.04" cy="85.62" r="2.35"/>
    <circle cx="108.61" cy="116.44" r="2.35"/>
    <circle cx="82.53" cy="92.65" r="2.35"/>
    <circle cx="122.15" cy="127.76" r="2.35"/>
    <circle cx="96.09" cy="103.97" r="2.35"/>
    <circle cx="70.01" cy="80.18" r="2.35"/>
    <circle cx="57.50" cy="67.71" r="2.35"/>
    <circle cx="53.43" cy="63.45" r="2.35"/>
    <circle cx="105.59" cy="111.01" r="2.35"/>
    <circle cx="67.00" cy="74.77" r="2.35"/>
    <circle cx="93.08" cy="98.55" r="2.35"/>
    <circle cx="80.59" cy="86.08" r="2.35"/>
    <circle cx="119.17" cy="122.32" r="2.35"/>
    <circle cx="63.99" cy="69.38" r="2.35"/>
    <circle cx="90.09" cy="93.16" r="2.35"/>
    <circle cx="77.60" cy="80.69" r="2.35"/>
    <circle cx="116.21" cy="116.93" r="2.35"/>
    <circle cx="103.72" cy="104.46" r="2.35"/>
    <circle cx="87.11" cy="87.80" r="2.35"/>
    <circle cx="74.62" cy="75.33" r="2.35"/>
    <circle cx="62.14" cy="62.85" r="2.35"/>
    <circle cx="58.00" cy="58.67" r="2.35"/>
    <circle cx="71.65" cy="69.99" r="2.35"/>
    <circle cx="100.77" cy="99.10" r="2.35"/>
    <circle cx="113.25" cy="111.58" r="2.35"/>
    <circle cx="68.68" cy="64.67" r="2.35"/>
    <circle cx="85.34" cy="81.29" r="2.35"/>
    <circle cx="97.81" cy="93.78" r="2.35"/>
    <circle cx="110.29" cy="106.26" r="2.35"/>
    <circle cx="82.39" cy="75.98" r="2.35"/>
    <circle cx="62.75" cy="54.07" r="2.35"/>
    <circle cx="94.87" cy="88.47" r="2.35"/>
    <circle cx="126.97" cy="122.88" r="2.35"/>
    <circle cx="66.97" cy="58.18" r="2.35"/>
    <circle cx="79.45" cy="70.68" r="2.35"/>
    <circle cx="91.92" cy="83.19" r="2.35"/>
    <circle cx="76.50" cy="65.41" r="2.35"/>
    <circle cx="124.05" cy="117.58" r="2.35"/>
    <circle cx="108.65" cy="99.79" r="2.35"/>
    <circle cx="73.56" cy="60.15" r="2.35"/>
    <circle cx="121.13" cy="112.31" r="2.35"/>
  </g>
  <g style="fill:#D3DCE5; stroke:none" id="sobreviven">
    <circle cx="105.73" cy="94.53" r="2.35"/>
    <circle cx="90.32" cy="76.74" r="2.35"/>
    <circle cx="67.68" cy="49.66" r="2.35"/>
    <circle cx="71.99" cy="53.71" r="2.35"/>
    <circle cx="87.40" cy="71.50" r="2.35"/>
    <circle cx="102.81" cy="89.28" r="2.35"/>
    <circle cx="118.22" cy="107.06" r="2.35"/>
    <circle cx="84.47" cy="66.26" r="2.35"/>
    <circle cx="99.88" cy="84.05" r="2.35"/>
    <circle cx="115.29" cy="101.84" r="2.35"/>
    <circle cx="81.55" cy="61.04" r="2.35"/>
    <circle cx="96.96" cy="78.83" r="2.35"/>
    <circle cx="78.62" cy="55.83" r="2.35"/>
    <circle cx="72.77" cy="45.44" r="2.35"/>
    <circle cx="77.18" cy="49.45" r="2.35"/>
    <circle cx="95.52" cy="72.45" r="2.35"/>
    <circle cx="113.86" cy="95.44" r="2.35"/>
    <circle cx="132.20" cy="118.44" r="2.35"/>
    <circle cx="92.61" cy="67.26" r="2.35"/>
    <circle cx="110.95" cy="90.25" r="2.35"/>
    <circle cx="89.69" cy="62.08" r="2.35"/>
    <circle cx="129.30" cy="113.25" r="2.35"/>
    <circle cx="108.04" cy="85.07" r="2.35"/>
    <circle cx="86.78" cy="56.90" r="2.35"/>
    <circle cx="83.86" cy="51.74" r="2.35"/>
    <circle cx="105.13" cy="79.90" r="2.35"/>
    <circle cx="126.40" cy="108.07" r="2.35"/>
    <circle cx="102.22" cy="74.74" r="2.35"/>
    <circle cx="78.02" cy="41.42" r="2.35"/>
    <circle cx="123.49" cy="102.90" r="2.35"/>
    <circle cx="82.54" cy="45.40" r="2.35"/>
    <circle cx="120.58" cy="97.75" r="2.35"/>
    <circle cx="100.92" cy="68.41" r="2.35"/>
    <circle cx="98.01" cy="63.27" r="2.35"/>
    <circle cx="95.10" cy="58.13" r="2.35"/>
    <circle cx="92.18" cy="52.99" r="2.35"/>
    <circle cx="89.27" cy="47.86" r="2.35"/>
    <circle cx="119.33" cy="91.43" r="2.35"/>
    <circle cx="116.42" cy="86.30" r="2.35"/>
    <circle cx="83.43" cy="37.60" r="2.35"/>
    <circle cx="113.51" cy="81.17" r="2.35"/>
    <circle cx="110.59" cy="76.04" r="2.35"/>
    <circle cx="88.06" cy="41.57" r="2.35"/>
    <circle cx="107.67" cy="70.92" r="2.35"/>
    <circle cx="137.79" cy="114.48" r="2.35"/>
    <circle cx="134.88" cy="109.36" r="2.35"/>
    <circle cx="106.52" cy="64.65" r="2.35"/>
    <circle cx="103.60" cy="59.54" r="2.35"/>
    <circle cx="131.96" cy="104.24" r="2.35"/>
    <circle cx="100.68" cy="54.43" r="2.35"/>
    <circle cx="129.04" cy="99.13" r="2.35"/>
    <circle cx="97.75" cy="49.32" r="2.35"/>
    <circle cx="94.83" cy="44.21" r="2.35"/>
    <circle cx="126.12" cy="94.02" r="2.35"/>
    <circle cx="88.97" cy="33.99" r="2.35"/>
    <circle cx="93.73" cy="37.97" r="2.35"/>
    <circle cx="125.05" cy="87.78" r="2.35"/>
    <circle cx="122.12" cy="82.68" r="2.35"/>
    <circle cx="119.19" cy="77.58" r="2.35"/>
    <circle cx="116.25" cy="72.48" r="2.35"/>
    <circle cx="113.32" cy="67.38" r="2.35"/>
    <circle cx="94.65" cy="30.60" r="2.35"/>
    <circle cx="100.53" cy="40.79" r="2.35"/>
    <circle cx="103.47" cy="45.89" r="2.35"/>
    <circle cx="106.42" cy="50.98" r="2.35"/>
    <circle cx="109.36" cy="56.07" r="2.35"/>
    <circle cx="112.30" cy="61.17" r="2.35"/>
    <circle cx="99.54" cy="34.60" r="2.35"/>
    <circle cx="131.89" cy="90.66" r="2.35"/>
    <circle cx="134.85" cy="95.75" r="2.35"/>
    <circle cx="137.80" cy="100.84" r="2.35"/>
    <circle cx="140.76" cy="105.93" r="2.35"/>
    <circle cx="143.72" cy="111.02" r="2.35"/>
    <circle cx="119.14" cy="64.13" r="2.35"/>
    <circle cx="122.10" cy="69.22" r="2.35"/>
    <circle cx="100.46" cy="27.43" r="2.35"/>
    <circle cx="125.06" cy="74.31" r="2.35"/>
    <circle cx="106.38" cy="37.61" r="2.35"/>
    <circle cx="128.02" cy="79.40" r="2.35"/>
    <circle cx="109.34" cy="42.70" r="2.35"/>
    <circle cx="130.98" cy="84.49" r="2.35"/>
    <circle cx="112.30" cy="47.80" r="2.35"/>
    <circle cx="115.27" cy="52.89" r="2.35"/>
    <circle cx="118.24" cy="57.97" r="2.35"/>
    <circle cx="105.49" cy="31.47" r="2.35"/>
    <circle cx="106.38" cy="24.49" r="2.35"/>
    <circle cx="112.35" cy="34.68" r="2.35"/>
    <circle cx="125.11" cy="61.18" r="2.35"/>
    <circle cx="115.34" cy="39.78" r="2.35"/>
    <circle cx="118.33" cy="44.88" r="2.35"/>
    <circle cx="128.10" cy="66.28" r="2.35"/>
    <circle cx="137.88" cy="87.68" r="2.35"/>
    <circle cx="111.55" cy="28.58" r="2.35"/>
    <circle cx="121.33" cy="49.98" r="2.35"/>
    <circle cx="131.10" cy="71.38" r="2.35"/>
    <circle cx="140.88" cy="92.79" r="2.35"/>
    <circle cx="124.33" cy="55.08" r="2.35"/>
    <circle cx="134.11" cy="76.48" r="2.35"/>
    <circle cx="143.88" cy="97.89" r="2.35"/>
    <circle cx="137.12" cy="81.58" r="2.35"/>
    <circle cx="146.90" cy="102.99" r="2.35"/>
    <circle cx="112.41" cy="21.77" r="2.35"/>
    <circle cx="149.92" cy="108.10" r="2.35"/>
    <circle cx="118.43" cy="32.00" r="2.35"/>
    <circle cx="121.45" cy="37.12" r="2.35"/>
    <circle cx="117.73" cy="25.93" r="2.35"/>
    <circle cx="124.48" cy="42.24" r="2.35"/>
    <circle cx="131.23" cy="58.54" r="2.35"/>
    <circle cx="127.51" cy="47.36" r="2.35"/>
    <circle cx="134.26" cy="63.67" r="2.35"/>
    <circle cx="130.56" cy="52.49" r="2.35"/>
    <circle cx="137.30" cy="68.80" r="2.35"/>
    <circle cx="118.54" cy="19.29" r="2.35"/>
    <circle cx="144.05" cy="85.11" r="2.35"/>
    <circle cx="140.35" cy="73.93" r="2.35"/>
    <circle cx="124.63" cy="29.57" r="2.35"/>
    <circle cx="147.10" cy="90.25" r="2.35"/>
    <circle cx="143.42" cy="79.07" r="2.35"/>
    <circle cx="127.68" cy="34.72" r="2.35"/>
    <circle cx="124.01" cy="23.54" r="2.35"/>
    <circle cx="150.16" cy="95.40" r="2.35"/>
    <circle cx="130.74" cy="39.88" r="2.35"/>
    <circle cx="137.47" cy="56.22" r="2.35"/>
    <circle cx="133.82" cy="45.04" r="2.35"/>
    <circle cx="124.77" cy="17.05" r="2.35"/>
    <circle cx="153.25" cy="100.56" r="2.35"/>
    <circle cx="140.55" cy="61.39" r="2.35"/>
    <circle cx="136.90" cy="50.20" r="2.35"/>
    <circle cx="130.91" cy="27.41" r="2.35"/>
    <circle cx="143.64" cy="66.57" r="2.35"/>
    <circle cx="156.36" cy="105.73" r="2.35"/>
    <circle cx="130.38" cy="21.41" r="2.35"/>
    <circle cx="134.00" cy="32.60" r="2.35"/>
    <circle cx="146.74" cy="71.76" r="2.35"/>
    <circle cx="150.37" cy="82.95" r="2.35"/>
    <circle cx="137.11" cy="37.80" r="2.35"/>
    <circle cx="131.07" cy="15.05" r="2.35"/>
    <circle cx="149.87" cy="76.96" r="2.35"/>
    <circle cx="140.22" cy="43.01" r="2.35"/>
    <circle cx="153.48" cy="88.16" r="2.35"/>
    <circle cx="143.83" cy="54.22" r="2.35"/>
    <circle cx="143.35" cy="48.24" r="2.35"/>
    <circle cx="137.29" cy="25.50" r="2.35"/>
    <circle cx="146.95" cy="59.45" r="2.35"/>
    <circle cx="156.62" cy="93.40" r="2.35"/>
    <circle cx="136.83" cy="19.53" r="2.35"/>
    <circle cx="140.41" cy="30.75" r="2.35"/>
    <circle cx="150.09" cy="64.70" r="2.35"/>
    <circle cx="137.45" cy="13.29" r="2.35"/>
    <circle cx="143.56" cy="36.01" r="2.35"/>
    <circle cx="159.78" cy="98.65" r="2.35"/>
    <circle cx="153.25" cy="69.97" r="2.35"/>
    <circle cx="146.72" cy="41.29" r="2.35"/>
    <circle cx="156.82" cy="81.21" r="2.35"/>
    <circle cx="150.28" cy="52.54" r="2.35"/>
    <circle cx="143.73" cy="23.86" r="2.35"/>
    <circle cx="143.35" cy="17.92" r="2.35"/>
    <circle cx="149.89" cy="46.59" r="2.35"/>
    <circle cx="156.44" cy="75.26" r="2.35"/>
    <circle cx="162.98" cy="103.94" r="2.35"/>
    <circle cx="146.90" cy="29.18" r="2.35"/>
    <circle cx="153.45" cy="57.85" r="2.35"/>
    <circle cx="143.89" cy="11.77" r="2.35"/>
    <circle cx="159.99" cy="86.53" r="2.35"/>
    <circle cx="150.08" cy="34.52" r="2.35"/>
    <circle cx="156.64" cy="63.20" r="2.35"/>
    <circle cx="153.28" cy="39.88" r="2.35"/>
    <circle cx="163.20" cy="91.88" r="2.35"/>
    <circle cx="150.24" cy="22.49" r="2.35"/>
    <circle cx="149.93" cy="16.57" r="2.35"/>
    <circle cx="159.86" cy="68.57" r="2.35"/>
    <circle cx="156.80" cy="51.19" r="2.35"/>
    <circle cx="150.38" cy="10.51" r="2.35"/>
    <circle cx="153.44" cy="27.89" r="2.35"/>
    <circle cx="156.51" cy="45.27" r="2.35"/>
    <circle cx="163.37" cy="79.90" r="2.35"/>
    <circle cx="166.45" cy="97.28" r="2.35"/>
    <circle cx="160.02" cy="56.61" r="2.35"/>
    <circle cx="163.10" cy="73.99" r="2.35"/>
    <circle cx="156.67" cy="33.31" r="2.35"/>
    <circle cx="156.80" cy="21.39" r="2.35"/>
    <circle cx="156.56" cy="15.48" r="2.35"/>
    <circle cx="159.91" cy="38.77" r="2.35"/>
    <circle cx="163.26" cy="62.06" r="2.35"/>
    <circle cx="166.61" cy="85.35" r="2.35"/>
    <circle cx="156.92" cy="9.50" r="2.35"/>
    <circle cx="169.74" cy="102.74" r="2.35"/>
    <circle cx="160.04" cy="26.88" r="2.35"/>
    <circle cx="163.39" cy="50.18" r="2.35"/>
    <circle cx="163.18" cy="44.27" r="2.35"/>
    <circle cx="166.53" cy="67.57" r="2.35"/>
    <circle cx="169.88" cy="90.87" r="2.35"/>
    <circle cx="163.30" cy="32.41" r="2.35"/>
    <circle cx="166.65" cy="55.72" r="2.35"/>
    <circle cx="163.40" cy="20.57" r="2.35"/>
    <circle cx="163.23" cy="14.67" r="2.35"/>
    <circle cx="169.99" cy="79.02" r="2.35"/>
    <circle cx="163.49" cy="8.74" r="2.35"/>
    <circle cx="169.84" cy="73.13" r="2.35"/>
    <circle cx="166.58" cy="37.99" r="2.35"/>
    <circle cx="166.67" cy="26.16" r="2.35"/>
    <circle cx="169.93" cy="61.31" r="2.35"/>
    <circle cx="173.20" cy="96.45" r="2.35"/>
    <circle cx="170.01" cy="49.50" r="2.35"/>
    <circle cx="169.89" cy="43.61" r="2.35"/>
    <circle cx="173.29" cy="84.65" r="2.35"/>
    <circle cx="169.97" cy="31.81" r="2.35"/>
    <circle cx="170.03" cy="20.02" r="2.35"/>
    <circle cx="169.93" cy="14.13" r="2.35"/>
    <circle cx="173.25" cy="66.97" r="2.35"/>
    <circle cx="170.08" cy="8.23" r="2.35"/>
    <circle cx="173.31" cy="55.18" r="2.35"/>
    <circle cx="173.28" cy="37.51" r="2.35"/>
    <circle cx="176.57" cy="102.13" r="2.35"/>
    <circle cx="173.33" cy="25.73" r="2.35"/>
    <circle cx="176.62" cy="90.36" r="2.35"/>
    <circle cx="176.66" cy="78.58" r="2.35"/>
    <circle cx="176.61" cy="72.70" r="2.35"/>
    <circle cx="176.64" cy="60.93" r="2.35"/>
    <circle cx="176.67" cy="49.16" r="2.35"/>
    <circle cx="176.63" cy="43.28" r="2.35"/>
    <circle cx="176.65" cy="31.51" r="2.35"/>
    <circle cx="176.67" cy="19.74" r="2.35"/>
    <circle cx="176.64" cy="13.86" r="2.35"/>
    <circle cx="176.69" cy="7.97" r="2.35"/>
    <circle cx="180.00" cy="25.59" r="2.35"/>
    <circle cx="180.00" cy="37.35" r="2.35"/>
    <circle cx="180.00" cy="55.00" r="2.35"/>
    <circle cx="180.00" cy="66.76" r="2.35"/>
    <circle cx="180.00" cy="96.18" r="2.35"/>
    <circle cx="180.00" cy="84.41" r="2.35"/>
    <circle cx="183.31" cy="7.97" r="2.35"/>
    <circle cx="183.36" cy="13.86" r="2.35"/>
    <circle cx="183.33" cy="19.74" r="2.35"/>
    <circle cx="183.35" cy="31.51" r="2.35"/>
    <circle cx="183.37" cy="43.28" r="2.35"/>
    <circle cx="183.33" cy="49.16" r="2.35"/>
    <circle cx="183.36" cy="60.93" r="2.35"/>
    <circle cx="183.39" cy="72.70" r="2.35"/>
    <circle cx="183.34" cy="78.58" r="2.35"/>
    <circle cx="183.38" cy="90.36" r="2.35"/>
    <circle cx="186.67" cy="25.73" r="2.35"/>
    <circle cx="183.43" cy="102.13" r="2.35"/>
    <circle cx="186.72" cy="37.51" r="2.35"/>
    <circle cx="186.69" cy="55.18" r="2.35"/>
    <circle cx="189.92" cy="8.23" r="2.35"/>
    <circle cx="186.75" cy="66.97" r="2.35"/>
    <circle cx="190.07" cy="14.13" r="2.35"/>
    <circle cx="189.97" cy="20.02" r="2.35"/>
    <circle cx="190.03" cy="31.81" r="2.35"/>
    <circle cx="186.71" cy="84.65" r="2.35"/>
    <circle cx="190.11" cy="43.61" r="2.35"/>
    <circle cx="189.99" cy="49.50" r="2.35"/>
    <circle cx="186.80" cy="96.45" r="2.35"/>
    <circle cx="190.07" cy="61.31" r="2.35"/>
    <circle cx="193.33" cy="26.16" r="2.35"/>
    <circle cx="193.42" cy="37.99" r="2.35"/>
    <circle cx="190.16" cy="73.13" r="2.35"/>
    <circle cx="196.51" cy="8.74" r="2.35"/>
    <circle cx="190.01" cy="79.02" r="2.35"/>
    <circle cx="196.77" cy="14.67" r="2.35"/>
    <circle cx="196.60" cy="20.57" r="2.35"/>
    <circle cx="193.35" cy="55.72" r="2.35"/>
    <circle cx="196.70" cy="32.41" r="2.35"/>
    <circle cx="190.12" cy="90.87" r="2.35"/>
    <circle cx="193.47" cy="67.57" r="2.35"/>
    <circle cx="196.82" cy="44.27" r="2.35"/>
    <circle cx="196.61" cy="50.18" r="2.35"/>
    <circle cx="199.96" cy="26.88" r="2.35"/>
    <circle cx="190.26" cy="102.74" r="2.35"/>
    <circle cx="203.08" cy="9.50" r="2.35"/>
    <circle cx="193.39" cy="85.35" r="2.35"/>
    <circle cx="196.74" cy="62.06" r="2.35"/>
    <circle cx="200.09" cy="38.77" r="2.35"/>
    <circle cx="203.44" cy="15.48" r="2.35"/>
    <circle cx="203.20" cy="21.39" r="2.35"/>
    <circle cx="203.33" cy="33.31" r="2.35"/>
    <circle cx="196.90" cy="73.99" r="2.35"/>
    <circle cx="199.98" cy="56.61" r="2.35"/>
    <circle cx="193.55" cy="97.28" r="2.35"/>
    <circle cx="196.63" cy="79.90" r="2.35"/>
    <circle cx="203.49" cy="45.27" r="2.35"/>
    <circle cx="206.56" cy="27.89" r="2.35"/>
    <circle cx="209.62" cy="10.51" r="2.35"/>
    <circle cx="203.20" cy="51.19" r="2.35"/>
    <circle cx="200.14" cy="68.57" r="2.35"/>
    <circle cx="210.07" cy="16.57" r="2.35"/>
    <circle cx="209.76" cy="22.49" r="2.35"/>
    <circle cx="196.80" cy="91.88" r="2.35"/>
    <circle cx="206.72" cy="39.88" r="2.35"/>
    <circle cx="203.36" cy="63.20" r="2.35"/>
    <circle cx="209.92" cy="34.52" r="2.35"/>
    <circle cx="200.01" cy="86.53" r="2.35"/>
    <circle cx="216.11" cy="11.77" r="2.35"/>
    <circle cx="206.55" cy="57.85" r="2.35"/>
    <circle cx="213.10" cy="29.18" r="2.35"/>
    <circle cx="197.02" cy="103.94" r="2.35"/>
    <circle cx="203.56" cy="75.26" r="2.35"/>
    <circle cx="210.11" cy="46.59" r="2.35"/>
    <circle cx="216.65" cy="17.92" r="2.35"/>
    <circle cx="216.27" cy="23.86" r="2.35"/>
    <circle cx="209.72" cy="52.54" r="2.35"/>
    <circle cx="203.18" cy="81.21" r="2.35"/>
    <circle cx="213.28" cy="41.29" r="2.35"/>
    <circle cx="206.75" cy="69.97" r="2.35"/>
    <circle cx="200.22" cy="98.65" r="2.35"/>
    <circle cx="216.44" cy="36.01" r="2.35"/>
    <circle cx="222.55" cy="13.29" r="2.35"/>
    <circle cx="209.91" cy="64.70" r="2.35"/>
    <circle cx="219.59" cy="30.75" r="2.35"/>
    <circle cx="223.17" cy="19.53" r="2.35"/>
    <circle cx="203.38" cy="93.40" r="2.35"/>
    <circle cx="213.05" cy="59.45" r="2.35"/>
    <circle cx="222.71" cy="25.50" r="2.35"/>
    <circle cx="216.65" cy="48.24" r="2.35"/>
    <circle cx="216.17" cy="54.22" r="2.35"/>
    <circle cx="206.52" cy="88.16" r="2.35"/>
    <circle cx="219.78" cy="43.01" r="2.35"/>
    <circle cx="210.13" cy="76.96" r="2.35"/>
    <circle cx="228.93" cy="15.05" r="2.35"/>
    <circle cx="222.89" cy="37.80" r="2.35"/>
    <circle cx="209.63" cy="82.95" r="2.35"/>
    <circle cx="213.26" cy="71.76" r="2.35"/>
    <circle cx="226.00" cy="32.60" r="2.35"/>
    <circle cx="229.62" cy="21.41" r="2.35"/>
    <circle cx="203.64" cy="105.73" r="2.35"/>
    <circle cx="216.36" cy="66.57" r="2.35"/>
    <circle cx="229.09" cy="27.41" r="2.35"/>
    <circle cx="223.10" cy="50.20" r="2.35"/>
    <circle cx="219.45" cy="61.39" r="2.35"/>
    <circle cx="206.75" cy="100.56" r="2.35"/>
    <circle cx="235.23" cy="17.05" r="2.35"/>
    <circle cx="226.18" cy="45.04" r="2.35"/>
    <circle cx="222.53" cy="56.22" r="2.35"/>
    <circle cx="229.26" cy="39.88" r="2.35"/>
    <circle cx="209.84" cy="95.40" r="2.35"/>
    <circle cx="235.99" cy="23.54" r="2.35"/>
    <circle cx="232.32" cy="34.72" r="2.35"/>
    <circle cx="216.58" cy="79.07" r="2.35"/>
    <circle cx="212.90" cy="90.25" r="2.35"/>
    <circle cx="235.37" cy="29.57" r="2.35"/>
    <circle cx="219.65" cy="73.93" r="2.35"/>
    <circle cx="215.95" cy="85.11" r="2.35"/>
    <circle cx="241.46" cy="19.29" r="2.35"/>
    <circle cx="222.70" cy="68.80" r="2.35"/>
    <circle cx="229.44" cy="52.49" r="2.35"/>
    <circle cx="225.74" cy="63.67" r="2.35"/>
    <circle cx="232.49" cy="47.36" r="2.35"/>
    <circle cx="228.77" cy="58.54" r="2.35"/>
    <circle cx="235.52" cy="42.24" r="2.35"/>
    <circle cx="242.27" cy="25.93" r="2.35"/>
    <circle cx="238.55" cy="37.12" r="2.35"/>
    <circle cx="241.57" cy="32.00" r="2.35"/>
    <circle cx="210.08" cy="108.10" r="2.35"/>
    <circle cx="247.59" cy="21.77" r="2.35"/>
    <circle cx="213.10" cy="102.99" r="2.35"/>
    <circle cx="222.88" cy="81.58" r="2.35"/>
    <circle cx="216.12" cy="97.89" r="2.35"/>
    <circle cx="225.89" cy="76.48" r="2.35"/>
    <circle cx="235.67" cy="55.08" r="2.35"/>
    <circle cx="219.12" cy="92.79" r="2.35"/>
    <circle cx="228.90" cy="71.38" r="2.35"/>
    <circle cx="238.67" cy="49.98" r="2.35"/>
    <circle cx="248.45" cy="28.58" r="2.35"/>
    <circle cx="222.12" cy="87.68" r="2.35"/>
    <circle cx="231.90" cy="66.28" r="2.35"/>
    <circle cx="241.67" cy="44.88" r="2.35"/>
    <circle cx="244.66" cy="39.78" r="2.35"/>
    <circle cx="234.89" cy="61.18" r="2.35"/>
    <circle cx="247.65" cy="34.68" r="2.35"/>
    <circle cx="253.62" cy="24.49" r="2.35"/>
    <circle cx="254.51" cy="31.47" r="2.35"/>
    <circle cx="241.76" cy="57.97" r="2.35"/>
    <circle cx="244.73" cy="52.89" r="2.35"/>
    <circle cx="247.70" cy="47.80" r="2.35"/>
    <circle cx="229.02" cy="84.49" r="2.35"/>
    <circle cx="250.66" cy="42.70" r="2.35"/>
    <circle cx="231.98" cy="79.40" r="2.35"/>
    <circle cx="253.62" cy="37.61" r="2.35"/>
    <circle cx="234.94" cy="74.31" r="2.35"/>
    <circle cx="259.54" cy="27.43" r="2.35"/>
    <circle cx="237.90" cy="69.22" r="2.35"/>
    <circle cx="240.86" cy="64.13" r="2.35"/>
    <circle cx="216.28" cy="111.02" r="2.35"/>
    <circle cx="219.24" cy="105.93" r="2.35"/>
    <circle cx="222.20" cy="100.84" r="2.35"/>
    <circle cx="225.15" cy="95.75" r="2.35"/>
    <circle cx="228.11" cy="90.66" r="2.35"/>
    <circle cx="260.46" cy="34.60" r="2.35"/>
    <circle cx="247.70" cy="61.17" r="2.35"/>
    <circle cx="250.64" cy="56.07" r="2.35"/>
    <circle cx="253.58" cy="50.98" r="2.35"/>
    <circle cx="256.53" cy="45.89" r="2.35"/>
    <circle cx="259.47" cy="40.79" r="2.35"/>
    <circle cx="265.35" cy="30.60" r="2.35"/>
    <circle cx="246.68" cy="67.38" r="2.35"/>
    <circle cx="243.75" cy="72.48" r="2.35"/>
    <circle cx="240.81" cy="77.58" r="2.35"/>
    <circle cx="237.88" cy="82.68" r="2.35"/>
    <circle cx="234.95" cy="87.78" r="2.35"/>
    <circle cx="266.27" cy="37.97" r="2.35"/>
    <circle cx="271.03" cy="33.99" r="2.35"/>
    <circle cx="233.88" cy="94.02" r="2.35"/>
    <circle cx="265.17" cy="44.21" r="2.35"/>
    <circle cx="262.25" cy="49.32" r="2.35"/>
    <circle cx="230.96" cy="99.13" r="2.35"/>
    <circle cx="259.32" cy="54.43" r="2.35"/>
    <circle cx="228.04" cy="104.24" r="2.35"/>
    <circle cx="256.40" cy="59.54" r="2.35"/>
    <circle cx="253.48" cy="64.65" r="2.35"/>
    <circle cx="225.12" cy="109.36" r="2.35"/>
    <circle cx="222.21" cy="114.48" r="2.35"/>
    <circle cx="252.33" cy="70.92" r="2.35"/>
    <circle cx="271.94" cy="41.57" r="2.35"/>
    <circle cx="249.41" cy="76.04" r="2.35"/>
    <circle cx="246.49" cy="81.17" r="2.35"/>
    <circle cx="276.57" cy="37.60" r="2.35"/>
    <circle cx="243.58" cy="86.30" r="2.35"/>
    <circle cx="240.67" cy="91.43" r="2.35"/>
    <circle cx="270.73" cy="47.86" r="2.35"/>
    <circle cx="267.82" cy="52.99" r="2.35"/>
    <circle cx="264.90" cy="58.13" r="2.35"/>
    <circle cx="261.99" cy="63.27" r="2.35"/>
    <circle cx="259.08" cy="68.41" r="2.35"/>
    <circle cx="239.42" cy="97.75" r="2.35"/>
    <circle cx="277.46" cy="45.40" r="2.35"/>
    <circle cx="236.51" cy="102.90" r="2.35"/>
    <circle cx="281.98" cy="41.42" r="2.35"/>
    <circle cx="257.78" cy="74.74" r="2.35"/>
    <circle cx="233.60" cy="108.07" r="2.35"/>
    <circle cx="254.87" cy="79.90" r="2.35"/>
    <circle cx="276.14" cy="51.74" r="2.35"/>
    <circle cx="273.22" cy="56.90" r="2.35"/>
    <circle cx="251.96" cy="85.07" r="2.35"/>
    <circle cx="230.70" cy="113.25" r="2.35"/>
    <circle cx="270.31" cy="62.08" r="2.35"/>
    <circle cx="249.05" cy="90.25" r="2.35"/>
    <circle cx="267.39" cy="67.26" r="2.35"/>
    <circle cx="227.80" cy="118.44" r="2.35"/>
    <circle cx="246.14" cy="95.44" r="2.35"/>
    <circle cx="264.48" cy="72.45" r="2.35"/>
    <circle cx="282.82" cy="49.45" r="2.35"/>
    <circle cx="287.23" cy="45.44" r="2.35"/>
    <circle cx="281.38" cy="55.83" r="2.35"/>
    <circle cx="263.04" cy="78.83" r="2.35"/>
    <circle cx="278.45" cy="61.04" r="2.35"/>
    <circle cx="244.71" cy="101.84" r="2.35"/>
    <circle cx="260.12" cy="84.05" r="2.35"/>
    <circle cx="275.53" cy="66.26" r="2.35"/>
    <circle cx="241.78" cy="107.06" r="2.35"/>
    <circle cx="257.19" cy="89.28" r="2.35"/>
    <circle cx="272.60" cy="71.50" r="2.35"/>
    <circle cx="288.01" cy="53.71" r="2.35"/>
    <circle cx="292.32" cy="49.66" r="2.35"/>
    <circle cx="269.68" cy="76.74" r="2.35"/>
    <circle cx="254.27" cy="94.53" r="2.35"/>
    <circle cx="238.87" cy="112.31" r="2.35"/>
    <circle cx="286.44" cy="60.15" r="2.35"/>
    <circle cx="251.35" cy="99.79" r="2.35"/>
    <circle cx="235.95" cy="117.58" r="2.35"/>
    <circle cx="283.50" cy="65.41" r="2.35"/>
    <circle cx="268.08" cy="83.19" r="2.35"/>
    <circle cx="280.55" cy="70.68" r="2.35"/>
    <circle cx="293.03" cy="58.18" r="2.35"/>
    <circle cx="233.03" cy="122.88" r="2.35"/>
    <circle cx="265.13" cy="88.47" r="2.35"/>
    <circle cx="297.25" cy="54.07" r="2.35"/>
    <circle cx="277.61" cy="75.98" r="2.35"/>
    <circle cx="249.71" cy="106.26" r="2.35"/>
    <circle cx="262.19" cy="93.78" r="2.35"/>
    <circle cx="274.66" cy="81.29" r="2.35"/>
    <circle cx="291.32" cy="64.67" r="2.35"/>
    <circle cx="246.75" cy="111.58" r="2.35"/>
    <circle cx="259.23" cy="99.10" r="2.35"/>
    <circle cx="288.35" cy="69.99" r="2.35"/>
    <circle cx="302.00" cy="58.67" r="2.35"/>
    <circle cx="297.86" cy="62.85" r="2.35"/>
    <circle cx="285.38" cy="75.33" r="2.35"/>
    <circle cx="272.89" cy="87.80" r="2.35"/>
    <circle cx="256.28" cy="104.46" r="2.35"/>
    <circle cx="243.79" cy="116.93" r="2.35"/>
    <circle cx="282.40" cy="80.69" r="2.35"/>
    <circle cx="269.91" cy="93.16" r="2.35"/>
    <circle cx="296.01" cy="69.38" r="2.35"/>
    <circle cx="240.83" cy="122.32" r="2.35"/>
    <circle cx="279.41" cy="86.08" r="2.35"/>
    <circle cx="266.92" cy="98.55" r="2.35"/>
    <circle cx="293.00" cy="74.77" r="2.35"/>
    <circle cx="254.41" cy="111.01" r="2.35"/>
    <circle cx="306.57" cy="63.45" r="2.35"/>
    <circle cx="302.50" cy="67.71" r="2.35"/>
    <circle cx="289.99" cy="80.18" r="2.35"/>
    <circle cx="263.91" cy="103.97" r="2.35"/>
    <circle cx="237.85" cy="127.76" r="2.35"/>
    <circle cx="277.47" cy="92.65" r="2.35"/>
    <circle cx="251.39" cy="116.44" r="2.35"/>
    <circle cx="286.96" cy="85.62" r="2.35"/>
    <circle cx="300.50" cy="74.29" r="2.35"/>
    <circle cx="260.90" cy="109.43" r="2.35"/>
    <circle cx="274.42" cy="98.09" r="2.35"/>
    <circle cx="283.92" cy="91.09" r="2.35"/>
    <circle cx="297.44" cy="79.75" r="2.35"/>
    <circle cx="310.96" cy="68.40" r="2.35"/>
    <circle cx="248.36" cy="121.91" r="2.35"/>
    <circle cx="306.94" cy="72.75" r="2.35"/>
    <circle cx="271.37" cy="103.58" r="2.35"/>
    <circle cx="294.37" cy="85.24" r="2.35"/>
    <circle cx="258.79" cy="116.06" r="2.35"/>
    <circle cx="281.78" cy="97.72" r="2.35"/>
    <circle cx="304.78" cy="79.38" r="2.35"/>
    <circle cx="245.30" cy="127.45" r="2.35"/>
    <circle cx="268.29" cy="109.10" r="2.35"/>
    <circle cx="291.29" cy="90.76" r="2.35"/>
    <circle cx="315.15" cy="73.52" r="2.35"/>
    <circle cx="301.66" cy="84.91" r="2.35"/>
    <circle cx="311.17" cy="77.97" r="2.35"/>
    <circle cx="278.67" cy="103.26" r="2.35"/>
    <circle cx="288.18" cy="96.32" r="2.35"/>
    <circle cx="255.68" cy="121.61" r="2.35"/>
    <circle cx="265.19" cy="114.68" r="2.35"/>
    <circle cx="298.53" cy="90.49" r="2.35"/>
    <circle cx="242.22" cy="133.05" r="2.35"/>
    <circle cx="275.53" cy="108.85" r="2.35"/>
    <circle cx="308.85" cy="84.64" r="2.35"/>
    <circle cx="252.54" cy="127.22" r="2.35"/>
    <circle cx="285.84" cy="103.01" r="2.35"/>
    <circle cx="319.15" cy="78.79" r="2.35"/>
    <circle cx="295.36" cy="96.10" r="2.35"/>
    <circle cx="315.19" cy="83.36" r="2.35"/>
    <circle cx="305.66" cy="90.26" r="2.35"/>
    <circle cx="272.36" cy="114.49" r="2.35"/>
    <circle cx="262.83" cy="121.38" r="2.35"/>
    <circle cx="292.17" cy="101.76" r="2.35"/>
    <circle cx="282.63" cy="108.65" r="2.35"/>
    <circle cx="302.44" cy="95.92" r="2.35"/>
    <circle cx="249.35" cy="132.92" r="2.35"/>
    <circle cx="312.69" cy="90.07" r="2.35"/>
    <circle cx="269.15" cy="120.19" r="2.35"/>
    <circle cx="322.93" cy="84.22" r="2.35"/>
    <circle cx="259.59" cy="127.07" r="2.35"/>
    <circle cx="279.39" cy="114.35" r="2.35"/>
    <circle cx="299.19" cy="101.62" r="2.35"/>
    <circle cx="318.98" cy="88.90" r="2.35"/>
    <circle cx="289.62" cy="108.49" r="2.35"/>
    <circle cx="309.42" cy="95.77" r="2.35"/>
    <circle cx="295.89" cy="107.38" r="2.35"/>
    <circle cx="246.10" cy="138.70" r="2.35"/>
    <circle cx="276.10" cy="120.11" r="2.35"/>
    <circle cx="306.10" cy="101.52" r="2.35"/>
    <circle cx="316.31" cy="95.65" r="2.35"/>
    <circle cx="286.30" cy="114.24" r="2.35"/>
    <circle cx="256.31" cy="132.83" r="2.35"/>
    <circle cx="326.51" cy="89.78" r="2.35"/>
    <circle cx="266.50" cy="126.96" r="2.35"/>
    <circle cx="322.55" cy="94.59" r="2.35"/>
    <circle cx="302.74" cy="107.32" r="2.35"/>
    <circle cx="312.93" cy="101.44" r="2.35"/>
    <circle cx="272.75" cy="125.95" r="2.35"/>
    <circle cx="282.93" cy="120.05" r="2.35"/>
    <circle cx="293.12" cy="114.16" r="2.35"/>
    <circle cx="263.12" cy="132.79" r="2.35"/>
    <circle cx="252.94" cy="138.70" r="2.35"/>
    <circle cx="329.87" cy="95.48" r="2.35"/>
    <circle cx="319.69" cy="101.38" r="2.35"/>
    <circle cx="309.51" cy="107.28" r="2.35"/>
    <circle cx="299.33" cy="113.19" r="2.35"/>
    <circle cx="289.67" cy="120.02" r="2.35"/>
    <circle cx="325.89" cy="100.43" r="2.35"/>
    <circle cx="279.50" cy="125.94" r="2.35"/>
    <circle cx="316.20" cy="107.26" r="2.35"/>
    <circle cx="306.03" cy="113.18" r="2.35"/>
    <circle cx="269.81" cy="132.77" r="2.35"/>
    <circle cx="259.64" cy="138.71" r="2.35"/>
    <circle cx="296.32" cy="120.00" r="2.35"/>
    <circle cx="333.01" cy="101.30" r="2.35"/>
    <circle cx="322.83" cy="107.24" r="2.35"/>
    <circle cx="286.15" cy="125.95" r="2.35"/>
    <circle cx="249.48" cy="144.68" r="2.35"/>
    <circle cx="312.66" cy="113.19" r="2.35"/>
    <circle cx="275.98" cy="131.91" r="2.35"/>
    <circle cx="302.48" cy="119.15" r="2.35"/>
    <circle cx="328.98" cy="106.39" r="2.35"/>
    <circle cx="319.22" cy="113.21" r="2.35"/>
    <circle cx="292.72" cy="125.97" r="2.35"/>
    <circle cx="266.23" cy="138.74" r="2.35"/>
    <circle cx="309.04" cy="119.19" r="2.35"/>
    <circle cx="282.54" cy="131.96" r="2.35"/>
    <circle cx="335.92" cy="107.24" r="2.35"/>
    <circle cx="256.05" cy="144.75" r="2.35"/>
    <circle cx="325.73" cy="113.23" r="2.35"/>
    <circle cx="299.22" cy="126.00" r="2.35"/>
    <circle cx="315.53" cy="119.23" r="2.35"/>
    <circle cx="331.84" cy="112.47" r="2.35"/>
    <circle cx="272.72" cy="138.78" r="2.35"/>
    <circle cx="289.03" cy="132.02" r="2.35"/>
    <circle cx="305.33" cy="125.26" r="2.35"/>
    <circle cx="321.97" cy="119.28" r="2.35"/>
    <circle cx="262.52" cy="144.82" r="2.35"/>
    <circle cx="278.83" cy="138.07" r="2.35"/>
    <circle cx="338.60" cy="113.29" r="2.35"/>
    <circle cx="295.45" cy="132.08" r="2.35"/>
    <circle cx="311.76" cy="125.33" r="2.35"/>
    <circle cx="328.37" cy="119.33" r="2.35"/>
    <circle cx="252.31" cy="150.92" r="2.35"/>
    <circle cx="285.22" cy="138.16" r="2.35"/>
    <circle cx="334.44" cy="118.66" r="2.35"/>
    <circle cx="318.13" cy="125.40" r="2.35"/>
    <circle cx="268.91" cy="144.90" r="2.35"/>
    <circle cx="301.82" cy="132.14" r="2.35"/>
    <circle cx="307.88" cy="131.51" r="2.35"/>
    <circle cx="324.46" cy="125.47" r="2.35"/>
    <circle cx="341.05" cy="119.44" r="2.35"/>
    <circle cx="291.56" cy="138.24" r="2.35"/>
    <circle cx="258.66" cy="151.03" r="2.35"/>
    <circle cx="275.23" cy="144.97" r="2.35"/>
    <circle cx="330.76" cy="125.54" r="2.35"/>
    <circle cx="314.18" cy="131.60" r="2.35"/>
    <circle cx="297.85" cy="138.32" r="2.35"/>
    <circle cx="281.28" cy="144.40" r="2.35"/>
    <circle cx="336.80" cy="124.96" r="2.35"/>
    <circle cx="320.45" cy="131.68" r="2.35"/>
    <circle cx="264.93" cy="151.13" r="2.35"/>
    <circle cx="304.10" cy="138.40" r="2.35"/>
    <circle cx="343.26" cy="125.67" r="2.35"/>
    <circle cx="287.53" cy="144.50" r="2.35"/>
    <circle cx="326.68" cy="131.76" r="2.35"/>
    <circle cx="310.11" cy="137.87" r="2.35"/>
    <circle cx="271.16" cy="151.23" r="2.35"/>
    <circle cx="332.89" cy="131.84" r="2.35"/>
    <circle cx="293.74" cy="144.60" r="2.35"/>
    <circle cx="316.31" cy="137.97" r="2.35"/>
    <circle cx="338.89" cy="131.34" r="2.35"/>
    <circle cx="254.59" cy="157.39" r="2.35"/>
    <circle cx="277.33" cy="151.31" r="2.35"/>
    <circle cx="299.91" cy="144.69" r="2.35"/>
    <circle cx="322.48" cy="138.06" r="2.35"/>
    <circle cx="345.22" cy="131.99" r="2.35"/>
    <circle cx="283.33" cy="150.87" r="2.35"/>
    <circle cx="328.63" cy="138.14" r="2.35"/>
    <circle cx="306.05" cy="144.77" r="2.35"/>
    <circle cx="260.75" cy="157.51" r="2.35"/>
    <circle cx="312.03" cy="144.34" r="2.35"/>
    <circle cx="334.75" cy="138.23" r="2.35"/>
    <circle cx="289.45" cy="150.97" r="2.35"/>
    <circle cx="340.73" cy="137.80" r="2.35"/>
    <circle cx="266.87" cy="157.61" r="2.35"/>
    <circle cx="318.14" cy="144.43" r="2.35"/>
    <circle cx="295.55" cy="151.07" r="2.35"/>
    <circle cx="346.95" cy="138.37" r="2.35"/>
    <circle cx="324.23" cy="144.52" r="2.35"/>
    <circle cx="272.95" cy="157.70" r="2.35"/>
    <circle cx="301.63" cy="151.15" r="2.35"/>
    <circle cx="330.30" cy="144.60" r="2.35"/>
    <circle cx="336.35" cy="144.68" r="2.35"/>
    <circle cx="307.68" cy="151.23" r="2.35"/>
    <circle cx="279.01" cy="157.78" r="2.35"/>
    <circle cx="342.30" cy="144.33" r="2.35"/>
    <circle cx="313.63" cy="150.89" r="2.35"/>
    <circle cx="284.96" cy="157.46" r="2.35"/>
    <circle cx="256.29" cy="164.04" r="2.35"/>
    <circle cx="348.42" cy="144.82" r="2.35"/>
    <circle cx="319.66" cy="150.98" r="2.35"/>
    <circle cx="290.99" cy="157.55" r="2.35"/>
    <circle cx="325.68" cy="151.06" r="2.35"/>
    <circle cx="262.31" cy="164.13" r="2.35"/>
    <circle cx="297.00" cy="157.63" r="2.35"/>
    <circle cx="331.69" cy="151.13" r="2.35"/>
    <circle cx="337.69" cy="151.20" r="2.35"/>
    <circle cx="302.99" cy="157.70" r="2.35"/>
    <circle cx="268.31" cy="164.21" r="2.35"/>
    <circle cx="343.61" cy="150.92" r="2.35"/>
    <circle cx="308.98" cy="157.77" r="2.35"/>
    <circle cx="349.65" cy="151.32" r="2.35"/>
    <circle cx="274.29" cy="164.28" r="2.35"/>
    <circle cx="314.90" cy="157.51" r="2.35"/>
    <circle cx="320.87" cy="157.58" r="2.35"/>
    <circle cx="280.26" cy="164.35" r="2.35"/>
    <circle cx="326.84" cy="157.65" r="2.35"/>
    <circle cx="286.17" cy="164.13" r="2.35"/>
    <circle cx="332.79" cy="157.71" r="2.35"/>
    <circle cx="292.13" cy="164.20" r="2.35"/>
    <circle cx="338.74" cy="157.76" r="2.35"/>
    <circle cx="344.65" cy="157.56" r="2.35"/>
    <circle cx="298.07" cy="164.26" r="2.35"/>
    <circle cx="350.63" cy="157.86" r="2.35"/>
    <circle cx="304.01" cy="164.31" r="2.35"/>
    <circle cx="309.94" cy="164.36" r="2.35"/>
    <circle cx="257.40" cy="170.81" r="2.35"/>
    <circle cx="315.85" cy="164.19" r="2.35"/>
    <circle cx="321.77" cy="164.24" r="2.35"/>
    <circle cx="263.32" cy="170.86" r="2.35"/>
    <circle cx="327.70" cy="164.29" r="2.35"/>
    <circle cx="333.61" cy="164.33" r="2.35"/>
    <circle cx="269.24" cy="170.90" r="2.35"/>
    <circle cx="339.53" cy="164.37" r="2.35"/>
    <circle cx="345.43" cy="164.23" r="2.35"/>
    <circle cx="275.16" cy="170.94" r="2.35"/>
    <circle cx="351.35" cy="164.44" r="2.35"/>
    <circle cx="281.07" cy="170.98" r="2.35"/>
    <circle cx="286.96" cy="170.87" r="2.35"/>
    <circle cx="292.87" cy="170.91" r="2.35"/>
    <circle cx="298.77" cy="170.94" r="2.35"/>
    <circle cx="304.67" cy="170.97" r="2.35"/>
    <circle cx="310.57" cy="170.99" r="2.35"/>
    <circle cx="316.46" cy="170.91" r="2.35"/>
    <circle cx="322.36" cy="170.93" r="2.35"/>
    <circle cx="328.25" cy="170.96" r="2.35"/>
    <circle cx="334.15" cy="170.98" r="2.35"/>
    <circle cx="340.04" cy="171.00" r="2.35"/>
    <circle cx="345.93" cy="170.93" r="2.35"/>
    <circle cx="351.83" cy="171.04" r="2.35"/>
    <circle cx="257.91" cy="177.65" r="2.35"/>
    <circle cx="263.79" cy="177.65" r="2.35"/>
    <circle cx="269.68" cy="177.65" r="2.35"/>
    <circle cx="275.56" cy="177.65" r="2.35"/>
    <circle cx="281.44" cy="177.65" r="2.35"/>
    <circle cx="287.33" cy="177.65" r="2.35"/>
    <circle cx="293.21" cy="177.65" r="2.35"/>
    <circle cx="299.09" cy="177.65" r="2.35"/>
    <circle cx="304.98" cy="177.65" r="2.35"/>
    <circle cx="310.86" cy="177.65" r="2.35"/>
    <circle cx="316.74" cy="177.65" r="2.35"/>
    <circle cx="322.63" cy="177.65" r="2.35"/>
    <circle cx="328.51" cy="177.65" r="2.35"/>
    <circle cx="334.39" cy="177.65" r="2.35"/>
    <circle cx="340.28" cy="177.65" r="2.35"/>
    <circle cx="346.16" cy="177.65" r="2.35"/>
    <circle cx="352.04" cy="177.65" r="2.35"/>
  </g>
</g>
</svg>
